%TF.GenerationSoftware,KiCad,Pcbnew,5.1.10*%
%TF.CreationDate,2021-12-26T17:28:59+01:00*%
%TF.ProjectId,cluster,636c7573-7465-4722-9e6b-696361645f70,rev?*%
%TF.SameCoordinates,Original*%
%TF.FileFunction,Legend,Top*%
%TF.FilePolarity,Positive*%
%FSLAX46Y46*%
G04 Gerber Fmt 4.6, Leading zero omitted, Abs format (unit mm)*
G04 Created by KiCad (PCBNEW 5.1.10) date 2021-12-26 17:28:59*
%MOMM*%
%LPD*%
G01*
G04 APERTURE LIST*
%ADD10C,0.200000*%
%ADD11C,0.150000*%
G04 APERTURE END LIST*
D10*
%TO.C,J1*%
X181882833Y-107650001D02*
X166257167Y-107650001D01*
X166257167Y-107650001D02*
G75*
G02*
X165257167Y-106650001I0J1000000D01*
G01*
X182882832Y-106650001D02*
G75*
G02*
X181882833Y-107650000I-999999J0D01*
G01*
%TO.C,U5*%
D11*
X167702380Y-94071904D02*
X168511904Y-94071904D01*
X168607142Y-94024285D01*
X168654761Y-93976666D01*
X168702380Y-93881428D01*
X168702380Y-93690952D01*
X168654761Y-93595714D01*
X168607142Y-93548095D01*
X168511904Y-93500476D01*
X167702380Y-93500476D01*
X167702380Y-92548095D02*
X167702380Y-93024285D01*
X168178571Y-93071904D01*
X168130952Y-93024285D01*
X168083333Y-92929047D01*
X168083333Y-92690952D01*
X168130952Y-92595714D01*
X168178571Y-92548095D01*
X168273809Y-92500476D01*
X168511904Y-92500476D01*
X168607142Y-92548095D01*
X168654761Y-92595714D01*
X168702380Y-92690952D01*
X168702380Y-92929047D01*
X168654761Y-93024285D01*
X168607142Y-93071904D01*
%TO.C,U4*%
X171598095Y-100292380D02*
X171598095Y-101101904D01*
X171645714Y-101197142D01*
X171693333Y-101244761D01*
X171788571Y-101292380D01*
X171979047Y-101292380D01*
X172074285Y-101244761D01*
X172121904Y-101197142D01*
X172169523Y-101101904D01*
X172169523Y-100292380D01*
X173074285Y-100625714D02*
X173074285Y-101292380D01*
X172836190Y-100244761D02*
X172598095Y-100959047D01*
X173217142Y-100959047D01*
%TO.C,U3*%
X179342380Y-97471904D02*
X180151904Y-97471904D01*
X180247142Y-97424285D01*
X180294761Y-97376666D01*
X180342380Y-97281428D01*
X180342380Y-97090952D01*
X180294761Y-96995714D01*
X180247142Y-96948095D01*
X180151904Y-96900476D01*
X179342380Y-96900476D01*
X179342380Y-96519523D02*
X179342380Y-95900476D01*
X179723333Y-96233809D01*
X179723333Y-96090952D01*
X179770952Y-95995714D01*
X179818571Y-95948095D01*
X179913809Y-95900476D01*
X180151904Y-95900476D01*
X180247142Y-95948095D01*
X180294761Y-95995714D01*
X180342380Y-96090952D01*
X180342380Y-96376666D01*
X180294761Y-96471904D01*
X180247142Y-96519523D01*
%TO.C,U2*%
X174998095Y-88642380D02*
X174998095Y-89451904D01*
X175045714Y-89547142D01*
X175093333Y-89594761D01*
X175188571Y-89642380D01*
X175379047Y-89642380D01*
X175474285Y-89594761D01*
X175521904Y-89547142D01*
X175569523Y-89451904D01*
X175569523Y-88642380D01*
X175998095Y-88737619D02*
X176045714Y-88690000D01*
X176140952Y-88642380D01*
X176379047Y-88642380D01*
X176474285Y-88690000D01*
X176521904Y-88737619D01*
X176569523Y-88832857D01*
X176569523Y-88928095D01*
X176521904Y-89070952D01*
X175950476Y-89642380D01*
X176569523Y-89642380D01*
%TO.C,U1*%
X171598095Y-89362380D02*
X171598095Y-90171904D01*
X171645714Y-90267142D01*
X171693333Y-90314761D01*
X171788571Y-90362380D01*
X171979047Y-90362380D01*
X172074285Y-90314761D01*
X172121904Y-90267142D01*
X172169523Y-90171904D01*
X172169523Y-89362380D01*
X173169523Y-90362380D02*
X172598095Y-90362380D01*
X172883809Y-90362380D02*
X172883809Y-89362380D01*
X172788571Y-89505238D01*
X172693333Y-89600476D01*
X172598095Y-89648095D01*
%TO.C,H3*%
X173298095Y-96222380D02*
X173298095Y-95222380D01*
X173298095Y-95698571D02*
X173869523Y-95698571D01*
X173869523Y-96222380D02*
X173869523Y-95222380D01*
X174250476Y-95222380D02*
X174869523Y-95222380D01*
X174536190Y-95603333D01*
X174679047Y-95603333D01*
X174774285Y-95650952D01*
X174821904Y-95698571D01*
X174869523Y-95793809D01*
X174869523Y-96031904D01*
X174821904Y-96127142D01*
X174774285Y-96174761D01*
X174679047Y-96222380D01*
X174393333Y-96222380D01*
X174298095Y-96174761D01*
X174250476Y-96127142D01*
%TO.C,H2*%
X169758095Y-93422380D02*
X169758095Y-92422380D01*
X169758095Y-92898571D02*
X170329523Y-92898571D01*
X170329523Y-93422380D02*
X170329523Y-92422380D01*
X170758095Y-92517619D02*
X170805714Y-92470000D01*
X170900952Y-92422380D01*
X171139047Y-92422380D01*
X171234285Y-92470000D01*
X171281904Y-92517619D01*
X171329523Y-92612857D01*
X171329523Y-92708095D01*
X171281904Y-92850952D01*
X170710476Y-93422380D01*
X171329523Y-93422380D01*
%TO.C,H1*%
X176778095Y-93102380D02*
X176778095Y-92102380D01*
X176778095Y-92578571D02*
X177349523Y-92578571D01*
X177349523Y-93102380D02*
X177349523Y-92102380D01*
X178349523Y-93102380D02*
X177778095Y-93102380D01*
X178063809Y-93102380D02*
X178063809Y-92102380D01*
X177968571Y-92245238D01*
X177873333Y-92340476D01*
X177778095Y-92388095D01*
%TO.C,J1*%
X177626666Y-98462380D02*
X177626666Y-99176666D01*
X177579047Y-99319523D01*
X177483809Y-99414761D01*
X177340952Y-99462380D01*
X177245714Y-99462380D01*
X178626666Y-99462380D02*
X178055238Y-99462380D01*
X178340952Y-99462380D02*
X178340952Y-98462380D01*
X178245714Y-98605238D01*
X178150476Y-98700476D01*
X178055238Y-98748095D01*
%TD*%
M02*
