%TF.GenerationSoftware,KiCad,Pcbnew,5.1.10*%
%TF.CreationDate,2021-12-26T17:28:59+01:00*%
%TF.ProjectId,cluster,636c7573-7465-4722-9e6b-696361645f70,rev?*%
%TF.SameCoordinates,Original*%
%TF.FileFunction,Soldermask,Top*%
%TF.FilePolarity,Negative*%
%FSLAX46Y46*%
G04 Gerber Fmt 4.6, Leading zero omitted, Abs format (unit mm)*
G04 Created by KiCad (PCBNEW 5.1.10) date 2021-12-26 17:28:59*
%MOMM*%
%LPD*%
G01*
G04 APERTURE LIST*
%ADD10O,1.300000X1.050000*%
%ADD11O,1.050000X1.300000*%
%ADD12C,0.700000*%
%ADD13C,4.400000*%
%ADD14R,2.000000X2.000000*%
G04 APERTURE END LIST*
D10*
%TO.C,U5*%
X166750000Y-93740000D03*
X166750000Y-95010000D03*
G36*
G01*
X167137500Y-96805000D02*
X166362500Y-96805000D01*
G75*
G02*
X166100000Y-96542500I0J262500D01*
G01*
X166100000Y-96017500D01*
G75*
G02*
X166362500Y-95755000I262500J0D01*
G01*
X167137500Y-95755000D01*
G75*
G02*
X167400000Y-96017500I0J-262500D01*
G01*
X167400000Y-96542500D01*
G75*
G02*
X167137500Y-96805000I-262500J0D01*
G01*
G37*
%TD*%
D11*
%TO.C,U4*%
X172790000Y-102340000D03*
X174060000Y-102340000D03*
G36*
G01*
X175855000Y-101952500D02*
X175855000Y-102727500D01*
G75*
G02*
X175592500Y-102990000I-262500J0D01*
G01*
X175067500Y-102990000D01*
G75*
G02*
X174805000Y-102727500I0J262500D01*
G01*
X174805000Y-101952500D01*
G75*
G02*
X175067500Y-101690000I262500J0D01*
G01*
X175592500Y-101690000D01*
G75*
G02*
X175855000Y-101952500I0J-262500D01*
G01*
G37*
%TD*%
D10*
%TO.C,U3*%
X181390000Y-96280000D03*
X181390000Y-95010000D03*
G36*
G01*
X181002500Y-93215000D02*
X181777500Y-93215000D01*
G75*
G02*
X182040000Y-93477500I0J-262500D01*
G01*
X182040000Y-94002500D01*
G75*
G02*
X181777500Y-94265000I-262500J0D01*
G01*
X181002500Y-94265000D01*
G75*
G02*
X180740000Y-94002500I0J262500D01*
G01*
X180740000Y-93477500D01*
G75*
G02*
X181002500Y-93215000I262500J0D01*
G01*
G37*
%TD*%
D11*
%TO.C,U2*%
X175330000Y-87690000D03*
X174060000Y-87690000D03*
G36*
G01*
X172265000Y-88077500D02*
X172265000Y-87302500D01*
G75*
G02*
X172527500Y-87040000I262500J0D01*
G01*
X173052500Y-87040000D01*
G75*
G02*
X173315000Y-87302500I0J-262500D01*
G01*
X173315000Y-88077500D01*
G75*
G02*
X173052500Y-88340000I-262500J0D01*
G01*
X172527500Y-88340000D01*
G75*
G02*
X172265000Y-88077500I0J262500D01*
G01*
G37*
%TD*%
%TO.C,U1*%
X172790000Y-91410000D03*
X174060000Y-91410000D03*
G36*
G01*
X175855000Y-91022500D02*
X175855000Y-91797500D01*
G75*
G02*
X175592500Y-92060000I-262500J0D01*
G01*
X175067500Y-92060000D01*
G75*
G02*
X174805000Y-91797500I0J262500D01*
G01*
X174805000Y-91022500D01*
G75*
G02*
X175067500Y-90760000I262500J0D01*
G01*
X175592500Y-90760000D01*
G75*
G02*
X175855000Y-91022500I0J-262500D01*
G01*
G37*
%TD*%
D12*
%TO.C,H3*%
X175226726Y-97803274D03*
X174060000Y-97320000D03*
X172893274Y-97803274D03*
X172410000Y-98970000D03*
X172893274Y-100136726D03*
X174060000Y-100620000D03*
X175226726Y-100136726D03*
X175710000Y-98970000D03*
D13*
X174060000Y-98970000D03*
%TD*%
D12*
%TO.C,H2*%
X169906726Y-88493274D03*
X168740000Y-88010000D03*
X167573274Y-88493274D03*
X167090000Y-89660000D03*
X167573274Y-90826726D03*
X168740000Y-91310000D03*
X169906726Y-90826726D03*
X170390000Y-89660000D03*
D13*
X168740000Y-89660000D03*
%TD*%
D12*
%TO.C,H1*%
X180566726Y-88533274D03*
X179400000Y-88050000D03*
X178233274Y-88533274D03*
X177750000Y-89700000D03*
X178233274Y-90866726D03*
X179400000Y-91350000D03*
X180566726Y-90866726D03*
X181050000Y-89700000D03*
D13*
X179400000Y-89700000D03*
%TD*%
D14*
%TO.C,J1*%
X179320000Y-102730000D03*
X181060000Y-105750000D03*
X177580000Y-105740000D03*
X174070000Y-105740000D03*
X170590000Y-105730000D03*
X167070000Y-105730000D03*
X168830000Y-102730000D03*
%TD*%
M02*
