%TF.GenerationSoftware,KiCad,Pcbnew,5.1.10*%
%TF.CreationDate,2021-12-26T17:28:59+01:00*%
%TF.ProjectId,cluster,636c7573-7465-4722-9e6b-696361645f70,rev?*%
%TF.SameCoordinates,Original*%
%TF.FileFunction,Copper,L1,Top*%
%TF.FilePolarity,Positive*%
%FSLAX46Y46*%
G04 Gerber Fmt 4.6, Leading zero omitted, Abs format (unit mm)*
G04 Created by KiCad (PCBNEW 5.1.10) date 2021-12-26 17:28:59*
%MOMM*%
%LPD*%
G01*
G04 APERTURE LIST*
%TA.AperFunction,ComponentPad*%
%ADD10O,1.300000X1.050000*%
%TD*%
%TA.AperFunction,ComponentPad*%
%ADD11O,1.050000X1.300000*%
%TD*%
%TA.AperFunction,ComponentPad*%
%ADD12C,0.700000*%
%TD*%
%TA.AperFunction,ComponentPad*%
%ADD13C,4.400000*%
%TD*%
%TA.AperFunction,SMDPad,CuDef*%
%ADD14R,2.000000X2.000000*%
%TD*%
%TA.AperFunction,ViaPad*%
%ADD15C,0.800000*%
%TD*%
%TA.AperFunction,Conductor*%
%ADD16C,0.250000*%
%TD*%
%TA.AperFunction,Conductor*%
%ADD17C,0.254000*%
%TD*%
%TA.AperFunction,Conductor*%
%ADD18C,0.100000*%
%TD*%
G04 APERTURE END LIST*
D10*
%TO.P,U5,3*%
%TO.N,Net-(J1-Pad6)*%
X166750000Y-93740000D03*
%TO.P,U5,2*%
%TO.N,GND*%
X166750000Y-95010000D03*
%TO.P,U5,1*%
%TO.N,VCC*%
%TA.AperFunction,ComponentPad*%
G36*
G01*
X167137500Y-96805000D02*
X166362500Y-96805000D01*
G75*
G02*
X166100000Y-96542500I0J262500D01*
G01*
X166100000Y-96017500D01*
G75*
G02*
X166362500Y-95755000I262500J0D01*
G01*
X167137500Y-95755000D01*
G75*
G02*
X167400000Y-96017500I0J-262500D01*
G01*
X167400000Y-96542500D01*
G75*
G02*
X167137500Y-96805000I-262500J0D01*
G01*
G37*
%TD.AperFunction*%
%TD*%
D11*
%TO.P,U4,3*%
%TO.N,Net-(J1-Pad5)*%
X172790000Y-102340000D03*
%TO.P,U4,2*%
%TO.N,GND*%
X174060000Y-102340000D03*
%TO.P,U4,1*%
%TO.N,VCC*%
%TA.AperFunction,ComponentPad*%
G36*
G01*
X175855000Y-101952500D02*
X175855000Y-102727500D01*
G75*
G02*
X175592500Y-102990000I-262500J0D01*
G01*
X175067500Y-102990000D01*
G75*
G02*
X174805000Y-102727500I0J262500D01*
G01*
X174805000Y-101952500D01*
G75*
G02*
X175067500Y-101690000I262500J0D01*
G01*
X175592500Y-101690000D01*
G75*
G02*
X175855000Y-101952500I0J-262500D01*
G01*
G37*
%TD.AperFunction*%
%TD*%
D10*
%TO.P,U3,3*%
%TO.N,Net-(J1-Pad4)*%
X181390000Y-96280000D03*
%TO.P,U3,2*%
%TO.N,GND*%
X181390000Y-95010000D03*
%TO.P,U3,1*%
%TO.N,VCC*%
%TA.AperFunction,ComponentPad*%
G36*
G01*
X181002500Y-93215000D02*
X181777500Y-93215000D01*
G75*
G02*
X182040000Y-93477500I0J-262500D01*
G01*
X182040000Y-94002500D01*
G75*
G02*
X181777500Y-94265000I-262500J0D01*
G01*
X181002500Y-94265000D01*
G75*
G02*
X180740000Y-94002500I0J262500D01*
G01*
X180740000Y-93477500D01*
G75*
G02*
X181002500Y-93215000I262500J0D01*
G01*
G37*
%TD.AperFunction*%
%TD*%
D11*
%TO.P,U2,3*%
%TO.N,Net-(J1-Pad3)*%
X175330000Y-87690000D03*
%TO.P,U2,2*%
%TO.N,GND*%
X174060000Y-87690000D03*
%TO.P,U2,1*%
%TO.N,VCC*%
%TA.AperFunction,ComponentPad*%
G36*
G01*
X172265000Y-88077500D02*
X172265000Y-87302500D01*
G75*
G02*
X172527500Y-87040000I262500J0D01*
G01*
X173052500Y-87040000D01*
G75*
G02*
X173315000Y-87302500I0J-262500D01*
G01*
X173315000Y-88077500D01*
G75*
G02*
X173052500Y-88340000I-262500J0D01*
G01*
X172527500Y-88340000D01*
G75*
G02*
X172265000Y-88077500I0J262500D01*
G01*
G37*
%TD.AperFunction*%
%TD*%
%TO.P,U1,3*%
%TO.N,Net-(J1-Pad2)*%
X172790000Y-91410000D03*
%TO.P,U1,2*%
%TO.N,GND*%
X174060000Y-91410000D03*
%TO.P,U1,1*%
%TO.N,VCC*%
%TA.AperFunction,ComponentPad*%
G36*
G01*
X175855000Y-91022500D02*
X175855000Y-91797500D01*
G75*
G02*
X175592500Y-92060000I-262500J0D01*
G01*
X175067500Y-92060000D01*
G75*
G02*
X174805000Y-91797500I0J262500D01*
G01*
X174805000Y-91022500D01*
G75*
G02*
X175067500Y-90760000I262500J0D01*
G01*
X175592500Y-90760000D01*
G75*
G02*
X175855000Y-91022500I0J-262500D01*
G01*
G37*
%TD.AperFunction*%
%TD*%
D12*
%TO.P,H3,1*%
%TO.N,GND*%
X175226726Y-97803274D03*
X174060000Y-97320000D03*
X172893274Y-97803274D03*
X172410000Y-98970000D03*
X172893274Y-100136726D03*
X174060000Y-100620000D03*
X175226726Y-100136726D03*
X175710000Y-98970000D03*
D13*
X174060000Y-98970000D03*
%TD*%
D12*
%TO.P,H2,1*%
%TO.N,GND*%
X169906726Y-88493274D03*
X168740000Y-88010000D03*
X167573274Y-88493274D03*
X167090000Y-89660000D03*
X167573274Y-90826726D03*
X168740000Y-91310000D03*
X169906726Y-90826726D03*
X170390000Y-89660000D03*
D13*
X168740000Y-89660000D03*
%TD*%
D12*
%TO.P,H1,1*%
%TO.N,GND*%
X180566726Y-88533274D03*
X179400000Y-88050000D03*
X178233274Y-88533274D03*
X177750000Y-89700000D03*
X178233274Y-90866726D03*
X179400000Y-91350000D03*
X180566726Y-90866726D03*
X181050000Y-89700000D03*
D13*
X179400000Y-89700000D03*
%TD*%
D14*
%TO.P,J1,7*%
%TO.N,VCC*%
X179320000Y-102730000D03*
%TO.P,J1,6*%
%TO.N,Net-(J1-Pad6)*%
X181060000Y-105750000D03*
%TO.P,J1,5*%
%TO.N,Net-(J1-Pad5)*%
X177580000Y-105740000D03*
%TO.P,J1,4*%
%TO.N,Net-(J1-Pad4)*%
X174070000Y-105740000D03*
%TO.P,J1,3*%
%TO.N,Net-(J1-Pad3)*%
X170590000Y-105730000D03*
%TO.P,J1,2*%
%TO.N,Net-(J1-Pad2)*%
X167070000Y-105730000D03*
%TO.P,J1,1*%
%TO.N,GND*%
X168830000Y-102730000D03*
%TD*%
D15*
%TO.N,VCC*%
X179200000Y-100500000D03*
X171300000Y-91900000D03*
X169400000Y-95100000D03*
X177674999Y-92974999D03*
%TO.N,Net-(J1-Pad6)*%
X179500000Y-93790000D03*
%TO.N,Net-(J1-Pad5)*%
X175850000Y-104450000D03*
%TO.N,Net-(J1-Pad4)*%
X174100000Y-103700000D03*
X182169980Y-103600000D03*
%TO.N,Net-(J1-Pad3)*%
X176200000Y-95000000D03*
X170700000Y-95100000D03*
%TO.N,Net-(J1-Pad2)*%
X172800000Y-96000000D03*
X167000000Y-98310000D03*
%TO.N,GND*%
X168800000Y-99200000D03*
X178774990Y-95000000D03*
%TD*%
D16*
%TO.N,VCC*%
X179200000Y-102610000D02*
X179320000Y-102730000D01*
X179200000Y-100500000D02*
X179200000Y-102610000D01*
X171300000Y-89190000D02*
X171300000Y-91900000D01*
X172790000Y-87700000D02*
X171300000Y-89190000D01*
X171300000Y-93200000D02*
X171300000Y-91900000D01*
X169400000Y-95100000D02*
X171300000Y-93200000D01*
X177674999Y-98974999D02*
X177674999Y-92974999D01*
X179200000Y-100500000D02*
X177674999Y-98974999D01*
%TO.N,Net-(J1-Pad6)*%
X179500000Y-95950000D02*
X179500000Y-93790000D01*
X181100000Y-97550000D02*
X179500000Y-95950000D01*
X181060000Y-105750000D02*
X181060000Y-104500000D01*
X181060000Y-104500000D02*
X181100000Y-104460000D01*
X181100000Y-104460000D02*
X181100000Y-97550000D01*
%TO.N,Net-(J1-Pad5)*%
X177200000Y-105360000D02*
X177580000Y-105740000D01*
X176290000Y-104450000D02*
X177580000Y-105740000D01*
X175850000Y-104450000D02*
X176290000Y-104450000D01*
%TO.N,Net-(J1-Pad4)*%
X174100000Y-105710000D02*
X174070000Y-105740000D01*
X174100000Y-103700000D02*
X174100000Y-105710000D01*
X181900000Y-103330020D02*
X182169980Y-103600000D01*
X181900000Y-96810000D02*
X181900000Y-103330020D01*
X181370000Y-96280000D02*
X181900000Y-96810000D01*
%TO.N,Net-(J1-Pad3)*%
X176200000Y-88570000D02*
X176200000Y-95000000D01*
X175330000Y-87700000D02*
X176200000Y-88570000D01*
X170700000Y-105620000D02*
X170590000Y-105730000D01*
X170700000Y-95100000D02*
X170700000Y-105620000D01*
%TO.N,Net-(J1-Pad2)*%
X172790000Y-95990000D02*
X172800000Y-96000000D01*
X172790000Y-91410000D02*
X172790000Y-95990000D01*
X167070000Y-98380000D02*
X167000000Y-98310000D01*
X167070000Y-105730000D02*
X167070000Y-98380000D01*
%TO.N,GND*%
X168830000Y-99230000D02*
X168800000Y-99200000D01*
X168830000Y-102730000D02*
X168830000Y-99230000D01*
X174060000Y-91410000D02*
X174060000Y-98970000D01*
X174060000Y-87700000D02*
X174060000Y-91410000D01*
X181370000Y-95010000D02*
X181390000Y-95010000D01*
X174060000Y-102330000D02*
X174060000Y-98970000D01*
X167450000Y-95010000D02*
X166750000Y-95010000D01*
X168800000Y-96360000D02*
X167450000Y-95010000D01*
X168800000Y-99200000D02*
X168800000Y-96360000D01*
X178774990Y-93482008D02*
X178774990Y-95000000D01*
X179400000Y-89700000D02*
X179400000Y-92856998D01*
X179400000Y-92856998D02*
X178774990Y-93482008D01*
%TD*%
D17*
%TO.N,GND*%
X174170000Y-87871979D02*
X174186785Y-88042400D01*
X174187000Y-88043109D01*
X174187000Y-88808163D01*
X174365810Y-88933964D01*
X174543784Y-88869184D01*
X174686067Y-88786120D01*
X174883941Y-88891885D01*
X175102601Y-88958215D01*
X175330000Y-88980612D01*
X175440000Y-88969778D01*
X175440000Y-90121928D01*
X175067500Y-90121928D01*
X174891807Y-90139232D01*
X174722866Y-90190480D01*
X174593310Y-90259729D01*
X174543784Y-90230816D01*
X174365810Y-90166036D01*
X174187000Y-90291837D01*
X174187000Y-90837682D01*
X174184232Y-90846807D01*
X174166928Y-91022500D01*
X174166928Y-91797500D01*
X174184232Y-91973193D01*
X174187000Y-91982318D01*
X174187000Y-92528163D01*
X174365810Y-92653964D01*
X174543784Y-92589184D01*
X174593310Y-92560271D01*
X174722866Y-92629520D01*
X174891807Y-92680768D01*
X175067500Y-92698072D01*
X175440001Y-92698072D01*
X175440001Y-94296288D01*
X175396063Y-94340226D01*
X175282795Y-94509744D01*
X175204774Y-94698102D01*
X175165000Y-94898061D01*
X175165000Y-95101939D01*
X175204774Y-95301898D01*
X175282795Y-95490256D01*
X175396063Y-95659774D01*
X175540226Y-95803937D01*
X175709744Y-95917205D01*
X175898102Y-95995226D01*
X176098061Y-96035000D01*
X176301939Y-96035000D01*
X176501898Y-95995226D01*
X176690256Y-95917205D01*
X176859774Y-95803937D01*
X176915000Y-95748711D01*
X176914999Y-98937676D01*
X176911323Y-98974999D01*
X176914999Y-99012321D01*
X176914999Y-99012331D01*
X176925996Y-99123984D01*
X176945140Y-99187094D01*
X176969453Y-99267245D01*
X177040025Y-99399275D01*
X177064332Y-99428893D01*
X177134998Y-99515000D01*
X177164002Y-99538803D01*
X178165000Y-100539802D01*
X178165000Y-100601939D01*
X178204774Y-100801898D01*
X178282795Y-100990256D01*
X178350730Y-101091928D01*
X178320000Y-101091928D01*
X178195518Y-101104188D01*
X178075820Y-101140498D01*
X177965506Y-101199463D01*
X177868815Y-101278815D01*
X177789463Y-101375506D01*
X177730498Y-101485820D01*
X177694188Y-101605518D01*
X177681928Y-101730000D01*
X177681928Y-103730000D01*
X177694188Y-103854482D01*
X177730498Y-103974180D01*
X177789463Y-104084494D01*
X177803771Y-104101928D01*
X177016729Y-104101928D01*
X176853803Y-103939002D01*
X176830001Y-103909999D01*
X176714276Y-103815026D01*
X176637927Y-103774216D01*
X176509774Y-103646063D01*
X176340256Y-103532795D01*
X176151898Y-103454774D01*
X176125465Y-103449516D01*
X176229301Y-103364301D01*
X176341298Y-103227831D01*
X176424520Y-103072134D01*
X176475768Y-102903193D01*
X176493072Y-102727500D01*
X176493072Y-101952500D01*
X176475768Y-101776807D01*
X176424520Y-101607866D01*
X176341298Y-101452169D01*
X176229301Y-101315699D01*
X176092831Y-101203702D01*
X175937134Y-101120480D01*
X175796892Y-101077938D01*
X175870170Y-100959775D01*
X174060000Y-99149605D01*
X172249830Y-100959775D01*
X172357816Y-101133906D01*
X172343941Y-101138115D01*
X172142422Y-101245829D01*
X171965789Y-101390788D01*
X171820829Y-101567421D01*
X171713115Y-101768940D01*
X171646785Y-101987600D01*
X171630000Y-102158021D01*
X171630000Y-102521978D01*
X171646785Y-102692399D01*
X171713115Y-102911059D01*
X171820829Y-103112578D01*
X171965788Y-103289212D01*
X172142421Y-103434171D01*
X172343940Y-103541885D01*
X172562600Y-103608215D01*
X172790000Y-103630612D01*
X173017399Y-103608215D01*
X173065907Y-103593500D01*
X173065000Y-103598061D01*
X173065000Y-103801939D01*
X173104774Y-104001898D01*
X173146208Y-104101928D01*
X173070000Y-104101928D01*
X172945518Y-104114188D01*
X172825820Y-104150498D01*
X172715506Y-104209463D01*
X172618815Y-104288815D01*
X172539463Y-104385506D01*
X172480498Y-104495820D01*
X172444188Y-104615518D01*
X172431928Y-104740000D01*
X172431928Y-106740000D01*
X172444188Y-106864482D01*
X172461687Y-106922167D01*
X172195280Y-106922167D01*
X172215812Y-106854482D01*
X172228072Y-106730000D01*
X172228072Y-104730000D01*
X172215812Y-104605518D01*
X172179502Y-104485820D01*
X172120537Y-104375506D01*
X172041185Y-104278815D01*
X171944494Y-104199463D01*
X171834180Y-104140498D01*
X171714482Y-104104188D01*
X171590000Y-104091928D01*
X171460000Y-104091928D01*
X171460000Y-100122856D01*
X171682982Y-100540024D01*
X172070225Y-100780170D01*
X173880395Y-98970000D01*
X174239605Y-98970000D01*
X176049775Y-100780170D01*
X176437018Y-100540024D01*
X176697641Y-100046123D01*
X176856901Y-99510867D01*
X176908678Y-98954826D01*
X176850981Y-98399368D01*
X176686028Y-97865839D01*
X176437018Y-97399976D01*
X176049775Y-97159830D01*
X174239605Y-98970000D01*
X173880395Y-98970000D01*
X172070225Y-97159830D01*
X171682982Y-97399976D01*
X171460000Y-97822544D01*
X171460000Y-95803711D01*
X171503937Y-95759774D01*
X171617205Y-95590256D01*
X171695226Y-95401898D01*
X171735000Y-95201939D01*
X171735000Y-94998061D01*
X171695226Y-94798102D01*
X171617205Y-94609744D01*
X171503937Y-94440226D01*
X171359774Y-94296063D01*
X171311197Y-94263605D01*
X171811004Y-93763798D01*
X171840001Y-93740001D01*
X171934974Y-93624276D01*
X172005546Y-93492247D01*
X172030000Y-93411630D01*
X172030001Y-95306288D01*
X171996063Y-95340226D01*
X171882795Y-95509744D01*
X171804774Y-95698102D01*
X171765000Y-95898061D01*
X171765000Y-96101939D01*
X171804774Y-96301898D01*
X171882795Y-96490256D01*
X171996063Y-96659774D01*
X172140226Y-96803937D01*
X172295015Y-96907363D01*
X172249830Y-96980225D01*
X174060000Y-98790395D01*
X175870170Y-96980225D01*
X175630024Y-96592982D01*
X175136123Y-96332359D01*
X174600867Y-96173099D01*
X174044826Y-96121322D01*
X173826636Y-96143986D01*
X173835000Y-96101939D01*
X173835000Y-95898061D01*
X173795226Y-95698102D01*
X173717205Y-95509744D01*
X173603937Y-95340226D01*
X173550000Y-95286289D01*
X173550000Y-92573879D01*
X173576216Y-92589184D01*
X173754190Y-92653964D01*
X173933000Y-92528163D01*
X173933000Y-91763109D01*
X173933215Y-91762400D01*
X173950000Y-91591979D01*
X173950000Y-91228022D01*
X173933215Y-91057601D01*
X173933000Y-91056892D01*
X173933000Y-90291837D01*
X173754190Y-90166036D01*
X173576216Y-90230816D01*
X173433933Y-90313880D01*
X173236060Y-90208115D01*
X173017400Y-90141785D01*
X172790000Y-90119388D01*
X172562601Y-90141785D01*
X172343941Y-90208115D01*
X172142422Y-90315829D01*
X172060000Y-90383471D01*
X172060000Y-89504801D01*
X172586730Y-88978072D01*
X173052500Y-88978072D01*
X173228193Y-88960768D01*
X173397134Y-88909520D01*
X173526690Y-88840271D01*
X173576216Y-88869184D01*
X173754190Y-88933964D01*
X173933000Y-88808163D01*
X173933000Y-88262318D01*
X173935768Y-88253193D01*
X173953072Y-88077500D01*
X173953072Y-87543000D01*
X174170000Y-87543000D01*
X174170000Y-87871979D01*
%TA.AperFunction,Conductor*%
D18*
G36*
X174170000Y-87871979D02*
G01*
X174186785Y-88042400D01*
X174187000Y-88043109D01*
X174187000Y-88808163D01*
X174365810Y-88933964D01*
X174543784Y-88869184D01*
X174686067Y-88786120D01*
X174883941Y-88891885D01*
X175102601Y-88958215D01*
X175330000Y-88980612D01*
X175440000Y-88969778D01*
X175440000Y-90121928D01*
X175067500Y-90121928D01*
X174891807Y-90139232D01*
X174722866Y-90190480D01*
X174593310Y-90259729D01*
X174543784Y-90230816D01*
X174365810Y-90166036D01*
X174187000Y-90291837D01*
X174187000Y-90837682D01*
X174184232Y-90846807D01*
X174166928Y-91022500D01*
X174166928Y-91797500D01*
X174184232Y-91973193D01*
X174187000Y-91982318D01*
X174187000Y-92528163D01*
X174365810Y-92653964D01*
X174543784Y-92589184D01*
X174593310Y-92560271D01*
X174722866Y-92629520D01*
X174891807Y-92680768D01*
X175067500Y-92698072D01*
X175440001Y-92698072D01*
X175440001Y-94296288D01*
X175396063Y-94340226D01*
X175282795Y-94509744D01*
X175204774Y-94698102D01*
X175165000Y-94898061D01*
X175165000Y-95101939D01*
X175204774Y-95301898D01*
X175282795Y-95490256D01*
X175396063Y-95659774D01*
X175540226Y-95803937D01*
X175709744Y-95917205D01*
X175898102Y-95995226D01*
X176098061Y-96035000D01*
X176301939Y-96035000D01*
X176501898Y-95995226D01*
X176690256Y-95917205D01*
X176859774Y-95803937D01*
X176915000Y-95748711D01*
X176914999Y-98937676D01*
X176911323Y-98974999D01*
X176914999Y-99012321D01*
X176914999Y-99012331D01*
X176925996Y-99123984D01*
X176945140Y-99187094D01*
X176969453Y-99267245D01*
X177040025Y-99399275D01*
X177064332Y-99428893D01*
X177134998Y-99515000D01*
X177164002Y-99538803D01*
X178165000Y-100539802D01*
X178165000Y-100601939D01*
X178204774Y-100801898D01*
X178282795Y-100990256D01*
X178350730Y-101091928D01*
X178320000Y-101091928D01*
X178195518Y-101104188D01*
X178075820Y-101140498D01*
X177965506Y-101199463D01*
X177868815Y-101278815D01*
X177789463Y-101375506D01*
X177730498Y-101485820D01*
X177694188Y-101605518D01*
X177681928Y-101730000D01*
X177681928Y-103730000D01*
X177694188Y-103854482D01*
X177730498Y-103974180D01*
X177789463Y-104084494D01*
X177803771Y-104101928D01*
X177016729Y-104101928D01*
X176853803Y-103939002D01*
X176830001Y-103909999D01*
X176714276Y-103815026D01*
X176637927Y-103774216D01*
X176509774Y-103646063D01*
X176340256Y-103532795D01*
X176151898Y-103454774D01*
X176125465Y-103449516D01*
X176229301Y-103364301D01*
X176341298Y-103227831D01*
X176424520Y-103072134D01*
X176475768Y-102903193D01*
X176493072Y-102727500D01*
X176493072Y-101952500D01*
X176475768Y-101776807D01*
X176424520Y-101607866D01*
X176341298Y-101452169D01*
X176229301Y-101315699D01*
X176092831Y-101203702D01*
X175937134Y-101120480D01*
X175796892Y-101077938D01*
X175870170Y-100959775D01*
X174060000Y-99149605D01*
X172249830Y-100959775D01*
X172357816Y-101133906D01*
X172343941Y-101138115D01*
X172142422Y-101245829D01*
X171965789Y-101390788D01*
X171820829Y-101567421D01*
X171713115Y-101768940D01*
X171646785Y-101987600D01*
X171630000Y-102158021D01*
X171630000Y-102521978D01*
X171646785Y-102692399D01*
X171713115Y-102911059D01*
X171820829Y-103112578D01*
X171965788Y-103289212D01*
X172142421Y-103434171D01*
X172343940Y-103541885D01*
X172562600Y-103608215D01*
X172790000Y-103630612D01*
X173017399Y-103608215D01*
X173065907Y-103593500D01*
X173065000Y-103598061D01*
X173065000Y-103801939D01*
X173104774Y-104001898D01*
X173146208Y-104101928D01*
X173070000Y-104101928D01*
X172945518Y-104114188D01*
X172825820Y-104150498D01*
X172715506Y-104209463D01*
X172618815Y-104288815D01*
X172539463Y-104385506D01*
X172480498Y-104495820D01*
X172444188Y-104615518D01*
X172431928Y-104740000D01*
X172431928Y-106740000D01*
X172444188Y-106864482D01*
X172461687Y-106922167D01*
X172195280Y-106922167D01*
X172215812Y-106854482D01*
X172228072Y-106730000D01*
X172228072Y-104730000D01*
X172215812Y-104605518D01*
X172179502Y-104485820D01*
X172120537Y-104375506D01*
X172041185Y-104278815D01*
X171944494Y-104199463D01*
X171834180Y-104140498D01*
X171714482Y-104104188D01*
X171590000Y-104091928D01*
X171460000Y-104091928D01*
X171460000Y-100122856D01*
X171682982Y-100540024D01*
X172070225Y-100780170D01*
X173880395Y-98970000D01*
X174239605Y-98970000D01*
X176049775Y-100780170D01*
X176437018Y-100540024D01*
X176697641Y-100046123D01*
X176856901Y-99510867D01*
X176908678Y-98954826D01*
X176850981Y-98399368D01*
X176686028Y-97865839D01*
X176437018Y-97399976D01*
X176049775Y-97159830D01*
X174239605Y-98970000D01*
X173880395Y-98970000D01*
X172070225Y-97159830D01*
X171682982Y-97399976D01*
X171460000Y-97822544D01*
X171460000Y-95803711D01*
X171503937Y-95759774D01*
X171617205Y-95590256D01*
X171695226Y-95401898D01*
X171735000Y-95201939D01*
X171735000Y-94998061D01*
X171695226Y-94798102D01*
X171617205Y-94609744D01*
X171503937Y-94440226D01*
X171359774Y-94296063D01*
X171311197Y-94263605D01*
X171811004Y-93763798D01*
X171840001Y-93740001D01*
X171934974Y-93624276D01*
X172005546Y-93492247D01*
X172030000Y-93411630D01*
X172030001Y-95306288D01*
X171996063Y-95340226D01*
X171882795Y-95509744D01*
X171804774Y-95698102D01*
X171765000Y-95898061D01*
X171765000Y-96101939D01*
X171804774Y-96301898D01*
X171882795Y-96490256D01*
X171996063Y-96659774D01*
X172140226Y-96803937D01*
X172295015Y-96907363D01*
X172249830Y-96980225D01*
X174060000Y-98790395D01*
X175870170Y-96980225D01*
X175630024Y-96592982D01*
X175136123Y-96332359D01*
X174600867Y-96173099D01*
X174044826Y-96121322D01*
X173826636Y-96143986D01*
X173835000Y-96101939D01*
X173835000Y-95898061D01*
X173795226Y-95698102D01*
X173717205Y-95509744D01*
X173603937Y-95340226D01*
X173550000Y-95286289D01*
X173550000Y-92573879D01*
X173576216Y-92589184D01*
X173754190Y-92653964D01*
X173933000Y-92528163D01*
X173933000Y-91763109D01*
X173933215Y-91762400D01*
X173950000Y-91591979D01*
X173950000Y-91228022D01*
X173933215Y-91057601D01*
X173933000Y-91056892D01*
X173933000Y-90291837D01*
X173754190Y-90166036D01*
X173576216Y-90230816D01*
X173433933Y-90313880D01*
X173236060Y-90208115D01*
X173017400Y-90141785D01*
X172790000Y-90119388D01*
X172562601Y-90141785D01*
X172343941Y-90208115D01*
X172142422Y-90315829D01*
X172060000Y-90383471D01*
X172060000Y-89504801D01*
X172586730Y-88978072D01*
X173052500Y-88978072D01*
X173228193Y-88960768D01*
X173397134Y-88909520D01*
X173526690Y-88840271D01*
X173576216Y-88869184D01*
X173754190Y-88933964D01*
X173933000Y-88808163D01*
X173933000Y-88262318D01*
X173935768Y-88253193D01*
X173953072Y-88077500D01*
X173953072Y-87543000D01*
X174170000Y-87543000D01*
X174170000Y-87871979D01*
G37*
%TD.AperFunction*%
D17*
X167635839Y-87033972D02*
X167169976Y-87282982D01*
X166929830Y-87670225D01*
X168740000Y-89480395D01*
X170550170Y-87670225D01*
X170310024Y-87282982D01*
X169816123Y-87022359D01*
X169537085Y-86939334D01*
X171705386Y-86939334D01*
X171695480Y-86957866D01*
X171644232Y-87126807D01*
X171626928Y-87302500D01*
X171626928Y-87788270D01*
X171189541Y-88225657D01*
X171117018Y-88089976D01*
X170729775Y-87849830D01*
X168919605Y-89660000D01*
X168933748Y-89674143D01*
X168754143Y-89853748D01*
X168740000Y-89839605D01*
X166929830Y-91649775D01*
X167169976Y-92037018D01*
X167663877Y-92297641D01*
X168199133Y-92456901D01*
X168755174Y-92508678D01*
X169310632Y-92450981D01*
X169844161Y-92286028D01*
X170275634Y-92055400D01*
X170304774Y-92201898D01*
X170382795Y-92390256D01*
X170496063Y-92559774D01*
X170540000Y-92603711D01*
X170540000Y-92885198D01*
X169360199Y-94065000D01*
X169298061Y-94065000D01*
X169098102Y-94104774D01*
X168909744Y-94182795D01*
X168740226Y-94296063D01*
X168596063Y-94440226D01*
X168482795Y-94609744D01*
X168404774Y-94798102D01*
X168365000Y-94998061D01*
X168365000Y-95201939D01*
X168404774Y-95401898D01*
X168482795Y-95590256D01*
X168596063Y-95759774D01*
X168740226Y-95903937D01*
X168909744Y-96017205D01*
X169098102Y-96095226D01*
X169298061Y-96135000D01*
X169501939Y-96135000D01*
X169701898Y-96095226D01*
X169890256Y-96017205D01*
X169940000Y-95983967D01*
X169940001Y-101102762D01*
X169830000Y-101091928D01*
X169115750Y-101095000D01*
X168957000Y-101253750D01*
X168957000Y-102603000D01*
X168977000Y-102603000D01*
X168977000Y-102857000D01*
X168957000Y-102857000D01*
X168957000Y-104206250D01*
X169089570Y-104338820D01*
X169059463Y-104375506D01*
X169000498Y-104485820D01*
X168964188Y-104605518D01*
X168951928Y-104730000D01*
X168951928Y-106730000D01*
X168964188Y-106854482D01*
X168984720Y-106922167D01*
X168675280Y-106922167D01*
X168695812Y-106854482D01*
X168708072Y-106730000D01*
X168708072Y-104730000D01*
X168695812Y-104605518D01*
X168659502Y-104485820D01*
X168600537Y-104375506D01*
X168570430Y-104338820D01*
X168703000Y-104206250D01*
X168703000Y-102857000D01*
X168683000Y-102857000D01*
X168683000Y-102603000D01*
X168703000Y-102603000D01*
X168703000Y-101253750D01*
X168544250Y-101095000D01*
X167830000Y-101091928D01*
X167830000Y-98930768D01*
X167917205Y-98800256D01*
X167995226Y-98611898D01*
X168035000Y-98411939D01*
X168035000Y-98208061D01*
X167995226Y-98008102D01*
X167917205Y-97819744D01*
X167803937Y-97650226D01*
X167659774Y-97506063D01*
X167490256Y-97392795D01*
X167461354Y-97380823D01*
X167482134Y-97374520D01*
X167637831Y-97291298D01*
X167774301Y-97179301D01*
X167886298Y-97042831D01*
X167969520Y-96887134D01*
X168020768Y-96718193D01*
X168038072Y-96542500D01*
X168038072Y-96017500D01*
X168020768Y-95841807D01*
X167969520Y-95672866D01*
X167900271Y-95543310D01*
X167929184Y-95493784D01*
X167993964Y-95315810D01*
X167868163Y-95137000D01*
X167322318Y-95137000D01*
X167313193Y-95134232D01*
X167137500Y-95116928D01*
X166603000Y-95116928D01*
X166603000Y-94900000D01*
X166931979Y-94900000D01*
X167102400Y-94883215D01*
X167103109Y-94883000D01*
X167868163Y-94883000D01*
X167993964Y-94704190D01*
X167929184Y-94526216D01*
X167846120Y-94383933D01*
X167951885Y-94186060D01*
X168018215Y-93967400D01*
X168040612Y-93740000D01*
X168018215Y-93512600D01*
X167951885Y-93293940D01*
X167844171Y-93092421D01*
X167699212Y-92915788D01*
X167522579Y-92770829D01*
X167321060Y-92663115D01*
X167102400Y-92596785D01*
X166931979Y-92580000D01*
X166568021Y-92580000D01*
X166397600Y-92596785D01*
X166178940Y-92663115D01*
X165979334Y-92769806D01*
X165979334Y-90328684D01*
X166113972Y-90764161D01*
X166362982Y-91230024D01*
X166750225Y-91470170D01*
X168560395Y-89660000D01*
X166750225Y-87849830D01*
X166362982Y-88089976D01*
X166102359Y-88583877D01*
X165979334Y-88997351D01*
X165979334Y-88240281D01*
X166006883Y-87959313D01*
X166078042Y-87723622D01*
X166193625Y-87506245D01*
X166349229Y-87315455D01*
X166538927Y-87158523D01*
X166755491Y-87041428D01*
X166990678Y-86968625D01*
X167269362Y-86939334D01*
X167941939Y-86939334D01*
X167635839Y-87033972D01*
%TA.AperFunction,Conductor*%
D18*
G36*
X167635839Y-87033972D02*
G01*
X167169976Y-87282982D01*
X166929830Y-87670225D01*
X168740000Y-89480395D01*
X170550170Y-87670225D01*
X170310024Y-87282982D01*
X169816123Y-87022359D01*
X169537085Y-86939334D01*
X171705386Y-86939334D01*
X171695480Y-86957866D01*
X171644232Y-87126807D01*
X171626928Y-87302500D01*
X171626928Y-87788270D01*
X171189541Y-88225657D01*
X171117018Y-88089976D01*
X170729775Y-87849830D01*
X168919605Y-89660000D01*
X168933748Y-89674143D01*
X168754143Y-89853748D01*
X168740000Y-89839605D01*
X166929830Y-91649775D01*
X167169976Y-92037018D01*
X167663877Y-92297641D01*
X168199133Y-92456901D01*
X168755174Y-92508678D01*
X169310632Y-92450981D01*
X169844161Y-92286028D01*
X170275634Y-92055400D01*
X170304774Y-92201898D01*
X170382795Y-92390256D01*
X170496063Y-92559774D01*
X170540000Y-92603711D01*
X170540000Y-92885198D01*
X169360199Y-94065000D01*
X169298061Y-94065000D01*
X169098102Y-94104774D01*
X168909744Y-94182795D01*
X168740226Y-94296063D01*
X168596063Y-94440226D01*
X168482795Y-94609744D01*
X168404774Y-94798102D01*
X168365000Y-94998061D01*
X168365000Y-95201939D01*
X168404774Y-95401898D01*
X168482795Y-95590256D01*
X168596063Y-95759774D01*
X168740226Y-95903937D01*
X168909744Y-96017205D01*
X169098102Y-96095226D01*
X169298061Y-96135000D01*
X169501939Y-96135000D01*
X169701898Y-96095226D01*
X169890256Y-96017205D01*
X169940000Y-95983967D01*
X169940001Y-101102762D01*
X169830000Y-101091928D01*
X169115750Y-101095000D01*
X168957000Y-101253750D01*
X168957000Y-102603000D01*
X168977000Y-102603000D01*
X168977000Y-102857000D01*
X168957000Y-102857000D01*
X168957000Y-104206250D01*
X169089570Y-104338820D01*
X169059463Y-104375506D01*
X169000498Y-104485820D01*
X168964188Y-104605518D01*
X168951928Y-104730000D01*
X168951928Y-106730000D01*
X168964188Y-106854482D01*
X168984720Y-106922167D01*
X168675280Y-106922167D01*
X168695812Y-106854482D01*
X168708072Y-106730000D01*
X168708072Y-104730000D01*
X168695812Y-104605518D01*
X168659502Y-104485820D01*
X168600537Y-104375506D01*
X168570430Y-104338820D01*
X168703000Y-104206250D01*
X168703000Y-102857000D01*
X168683000Y-102857000D01*
X168683000Y-102603000D01*
X168703000Y-102603000D01*
X168703000Y-101253750D01*
X168544250Y-101095000D01*
X167830000Y-101091928D01*
X167830000Y-98930768D01*
X167917205Y-98800256D01*
X167995226Y-98611898D01*
X168035000Y-98411939D01*
X168035000Y-98208061D01*
X167995226Y-98008102D01*
X167917205Y-97819744D01*
X167803937Y-97650226D01*
X167659774Y-97506063D01*
X167490256Y-97392795D01*
X167461354Y-97380823D01*
X167482134Y-97374520D01*
X167637831Y-97291298D01*
X167774301Y-97179301D01*
X167886298Y-97042831D01*
X167969520Y-96887134D01*
X168020768Y-96718193D01*
X168038072Y-96542500D01*
X168038072Y-96017500D01*
X168020768Y-95841807D01*
X167969520Y-95672866D01*
X167900271Y-95543310D01*
X167929184Y-95493784D01*
X167993964Y-95315810D01*
X167868163Y-95137000D01*
X167322318Y-95137000D01*
X167313193Y-95134232D01*
X167137500Y-95116928D01*
X166603000Y-95116928D01*
X166603000Y-94900000D01*
X166931979Y-94900000D01*
X167102400Y-94883215D01*
X167103109Y-94883000D01*
X167868163Y-94883000D01*
X167993964Y-94704190D01*
X167929184Y-94526216D01*
X167846120Y-94383933D01*
X167951885Y-94186060D01*
X168018215Y-93967400D01*
X168040612Y-93740000D01*
X168018215Y-93512600D01*
X167951885Y-93293940D01*
X167844171Y-93092421D01*
X167699212Y-92915788D01*
X167522579Y-92770829D01*
X167321060Y-92663115D01*
X167102400Y-92596785D01*
X166931979Y-92580000D01*
X166568021Y-92580000D01*
X166397600Y-92596785D01*
X166178940Y-92663115D01*
X165979334Y-92769806D01*
X165979334Y-90328684D01*
X166113972Y-90764161D01*
X166362982Y-91230024D01*
X166750225Y-91470170D01*
X168560395Y-89660000D01*
X166750225Y-87849830D01*
X166362982Y-88089976D01*
X166102359Y-88583877D01*
X165979334Y-88997351D01*
X165979334Y-88240281D01*
X166006883Y-87959313D01*
X166078042Y-87723622D01*
X166193625Y-87506245D01*
X166349229Y-87315455D01*
X166538927Y-87158523D01*
X166755491Y-87041428D01*
X166990678Y-86968625D01*
X167269362Y-86939334D01*
X167941939Y-86939334D01*
X167635839Y-87033972D01*
G37*
%TD.AperFunction*%
D17*
X174166928Y-102487000D02*
X173950000Y-102487000D01*
X173950000Y-102193000D01*
X174166928Y-102193000D01*
X174166928Y-102487000D01*
%TA.AperFunction,Conductor*%
D18*
G36*
X174166928Y-102487000D02*
G01*
X173950000Y-102487000D01*
X173950000Y-102193000D01*
X174166928Y-102193000D01*
X174166928Y-102487000D01*
G37*
%TD.AperFunction*%
D17*
X178465000Y-93688061D02*
X178465000Y-93891939D01*
X178504774Y-94091898D01*
X178582795Y-94280256D01*
X178696063Y-94449774D01*
X178740001Y-94493712D01*
X178740000Y-95912677D01*
X178736324Y-95950000D01*
X178740000Y-95987322D01*
X178740000Y-95987332D01*
X178750997Y-96098985D01*
X178775275Y-96179019D01*
X178794454Y-96242246D01*
X178865026Y-96374276D01*
X178897854Y-96414276D01*
X178959999Y-96490001D01*
X178989003Y-96513804D01*
X180340001Y-97864803D01*
X180340000Y-101093898D01*
X180320000Y-101091928D01*
X180049270Y-101091928D01*
X180117205Y-100990256D01*
X180195226Y-100801898D01*
X180235000Y-100601939D01*
X180235000Y-100398061D01*
X180195226Y-100198102D01*
X180117205Y-100009744D01*
X180003937Y-99840226D01*
X179859774Y-99696063D01*
X179690256Y-99582795D01*
X179501898Y-99504774D01*
X179301939Y-99465000D01*
X179239802Y-99465000D01*
X178434999Y-98660198D01*
X178434999Y-93678710D01*
X178474771Y-93638938D01*
X178465000Y-93688061D01*
%TA.AperFunction,Conductor*%
D18*
G36*
X178465000Y-93688061D02*
G01*
X178465000Y-93891939D01*
X178504774Y-94091898D01*
X178582795Y-94280256D01*
X178696063Y-94449774D01*
X178740001Y-94493712D01*
X178740000Y-95912677D01*
X178736324Y-95950000D01*
X178740000Y-95987322D01*
X178740000Y-95987332D01*
X178750997Y-96098985D01*
X178775275Y-96179019D01*
X178794454Y-96242246D01*
X178865026Y-96374276D01*
X178897854Y-96414276D01*
X178959999Y-96490001D01*
X178989003Y-96513804D01*
X180340001Y-97864803D01*
X180340000Y-101093898D01*
X180320000Y-101091928D01*
X180049270Y-101091928D01*
X180117205Y-100990256D01*
X180195226Y-100801898D01*
X180235000Y-100601939D01*
X180235000Y-100398061D01*
X180195226Y-100198102D01*
X180117205Y-100009744D01*
X180003937Y-99840226D01*
X179859774Y-99696063D01*
X179690256Y-99582795D01*
X179501898Y-99504774D01*
X179301939Y-99465000D01*
X179239802Y-99465000D01*
X178434999Y-98660198D01*
X178434999Y-93678710D01*
X178474771Y-93638938D01*
X178465000Y-93688061D01*
G37*
%TD.AperFunction*%
D17*
X181537000Y-95120000D02*
X181243000Y-95120000D01*
X181243000Y-94903072D01*
X181537000Y-94903072D01*
X181537000Y-95120000D01*
%TA.AperFunction,Conductor*%
D18*
G36*
X181537000Y-95120000D02*
G01*
X181243000Y-95120000D01*
X181243000Y-94903072D01*
X181537000Y-94903072D01*
X181537000Y-95120000D01*
G37*
%TD.AperFunction*%
D17*
X178295839Y-87073972D02*
X177829976Y-87322982D01*
X177589830Y-87710225D01*
X179400000Y-89520395D01*
X181210170Y-87710225D01*
X180970024Y-87322982D01*
X180476123Y-87062359D01*
X180062649Y-86939334D01*
X180834053Y-86939334D01*
X181115021Y-86966883D01*
X181350712Y-87038042D01*
X181568089Y-87153625D01*
X181758879Y-87309229D01*
X181915811Y-87498927D01*
X182032906Y-87715491D01*
X182105709Y-87950678D01*
X182135001Y-88229371D01*
X182135001Y-88948304D01*
X182026028Y-88595839D01*
X181777018Y-88129976D01*
X181389775Y-87889830D01*
X179579605Y-89700000D01*
X181389775Y-91510170D01*
X181777018Y-91270024D01*
X182037641Y-90776123D01*
X182135001Y-90448907D01*
X182135001Y-92652357D01*
X182122134Y-92645480D01*
X181953193Y-92594232D01*
X181777500Y-92576928D01*
X181002500Y-92576928D01*
X180826807Y-92594232D01*
X180657866Y-92645480D01*
X180502169Y-92728702D01*
X180365699Y-92840699D01*
X180253702Y-92977169D01*
X180217886Y-93044175D01*
X180159774Y-92986063D01*
X179990256Y-92872795D01*
X179801898Y-92794774D01*
X179601939Y-92755000D01*
X179398061Y-92755000D01*
X179198102Y-92794774D01*
X179009744Y-92872795D01*
X178840226Y-92986063D01*
X178700228Y-93126061D01*
X178709999Y-93076938D01*
X178709999Y-92873060D01*
X178670225Y-92673101D01*
X178592204Y-92484743D01*
X178536107Y-92400788D01*
X178859133Y-92496901D01*
X179415174Y-92548678D01*
X179970632Y-92490981D01*
X180504161Y-92326028D01*
X180970024Y-92077018D01*
X181210170Y-91689775D01*
X179400000Y-89879605D01*
X177589830Y-91689775D01*
X177745005Y-91939999D01*
X177573060Y-91939999D01*
X177373101Y-91979773D01*
X177184743Y-92057794D01*
X177015225Y-92171062D01*
X176960000Y-92226287D01*
X176960000Y-91152193D01*
X177022982Y-91270024D01*
X177410225Y-91510170D01*
X179220395Y-89700000D01*
X177410225Y-87889830D01*
X177022982Y-88129976D01*
X176919949Y-88325233D01*
X176905546Y-88277753D01*
X176834974Y-88145724D01*
X176740001Y-88029999D01*
X176711004Y-88006202D01*
X176490000Y-87785198D01*
X176490000Y-87508021D01*
X176473215Y-87337600D01*
X176406885Y-87118940D01*
X176310884Y-86939334D01*
X178731316Y-86939334D01*
X178295839Y-87073972D01*
%TA.AperFunction,Conductor*%
D18*
G36*
X178295839Y-87073972D02*
G01*
X177829976Y-87322982D01*
X177589830Y-87710225D01*
X179400000Y-89520395D01*
X181210170Y-87710225D01*
X180970024Y-87322982D01*
X180476123Y-87062359D01*
X180062649Y-86939334D01*
X180834053Y-86939334D01*
X181115021Y-86966883D01*
X181350712Y-87038042D01*
X181568089Y-87153625D01*
X181758879Y-87309229D01*
X181915811Y-87498927D01*
X182032906Y-87715491D01*
X182105709Y-87950678D01*
X182135001Y-88229371D01*
X182135001Y-88948304D01*
X182026028Y-88595839D01*
X181777018Y-88129976D01*
X181389775Y-87889830D01*
X179579605Y-89700000D01*
X181389775Y-91510170D01*
X181777018Y-91270024D01*
X182037641Y-90776123D01*
X182135001Y-90448907D01*
X182135001Y-92652357D01*
X182122134Y-92645480D01*
X181953193Y-92594232D01*
X181777500Y-92576928D01*
X181002500Y-92576928D01*
X180826807Y-92594232D01*
X180657866Y-92645480D01*
X180502169Y-92728702D01*
X180365699Y-92840699D01*
X180253702Y-92977169D01*
X180217886Y-93044175D01*
X180159774Y-92986063D01*
X179990256Y-92872795D01*
X179801898Y-92794774D01*
X179601939Y-92755000D01*
X179398061Y-92755000D01*
X179198102Y-92794774D01*
X179009744Y-92872795D01*
X178840226Y-92986063D01*
X178700228Y-93126061D01*
X178709999Y-93076938D01*
X178709999Y-92873060D01*
X178670225Y-92673101D01*
X178592204Y-92484743D01*
X178536107Y-92400788D01*
X178859133Y-92496901D01*
X179415174Y-92548678D01*
X179970632Y-92490981D01*
X180504161Y-92326028D01*
X180970024Y-92077018D01*
X181210170Y-91689775D01*
X179400000Y-89879605D01*
X177589830Y-91689775D01*
X177745005Y-91939999D01*
X177573060Y-91939999D01*
X177373101Y-91979773D01*
X177184743Y-92057794D01*
X177015225Y-92171062D01*
X176960000Y-92226287D01*
X176960000Y-91152193D01*
X177022982Y-91270024D01*
X177410225Y-91510170D01*
X179220395Y-89700000D01*
X177410225Y-87889830D01*
X177022982Y-88129976D01*
X176919949Y-88325233D01*
X176905546Y-88277753D01*
X176834974Y-88145724D01*
X176740001Y-88029999D01*
X176711004Y-88006202D01*
X176490000Y-87785198D01*
X176490000Y-87508021D01*
X176473215Y-87337600D01*
X176406885Y-87118940D01*
X176310884Y-86939334D01*
X178731316Y-86939334D01*
X178295839Y-87073972D01*
G37*
%TD.AperFunction*%
%TD*%
M02*
