M48
; DRILL file {KiCad 5.1.10} date Sun Dec 26 17:28:57 2021
; FORMAT={-:-/ absolute / metric / decimal}
; #@! TF.CreationDate,2021-12-26T17:28:57+01:00
; #@! TF.GenerationSoftware,Kicad,Pcbnew,5.1.10
FMAT,2
METRIC
T1C0.400
T2C0.750
T3C2.200
%
G90
G05
T1
X167.0Y-98.31
X167.09Y-89.66
X167.573Y-88.493
X167.573Y-90.827
X168.74Y-88.01
X168.74Y-91.31
X168.8Y-99.2
X169.4Y-95.1
X169.907Y-88.493
X169.907Y-90.827
X170.39Y-89.66
X170.7Y-95.1
X171.3Y-91.9
X172.41Y-98.97
X172.8Y-96.0
X172.893Y-97.803
X172.893Y-100.137
X174.06Y-97.32
X174.06Y-100.62
X174.1Y-103.7
X175.227Y-97.803
X175.227Y-100.137
X175.71Y-98.97
X175.85Y-104.45
X176.2Y-95.0
X177.675Y-92.975
X177.75Y-89.7
X178.233Y-88.533
X178.233Y-90.867
X178.775Y-95.0
X179.2Y-100.5
X179.4Y-88.05
X179.4Y-91.35
X179.5Y-93.79
X180.567Y-88.533
X180.567Y-90.867
X181.05Y-89.7
X182.17Y-103.6
T2
X166.75Y-93.74
X166.75Y-95.01
X166.75Y-96.28
X172.79Y-87.69
X172.79Y-91.41
X172.79Y-102.34
X174.06Y-87.69
X174.06Y-91.41
X174.06Y-102.34
X175.33Y-87.69
X175.33Y-91.41
X175.33Y-102.34
X181.39Y-93.74
X181.39Y-95.01
X181.39Y-96.28
T3
X168.74Y-89.66
X174.06Y-98.97
X179.4Y-89.7
T0
M30
